<?xml version="1.0" encoding="utf-8"?>
<!-- Generator: Adobe Illustrator 23.0.2, SVG Export Plug-In . SVG Version: 6.00 Build 0)  -->
<svg version="1.1" id="Layer_1" xmlns="http://www.w3.org/2000/svg" xmlns:xlink="http://www.w3.org/1999/xlink" x="0px" y="0px"
	 viewBox="0 0 1010.8 522.5" style="enable-background:new 0 0 1010.8 522.5;" xml:space="preserve">
<style type="text/css">
	.st0{fill:#F0C808;}
	.st1{fill:#FFFFFF;}
	.st2{fill:#00BFF3;}
	.st3{fill:#FF715B;}
	.st4{fill:#4C5B5C;}
	.st5{fill:#FF583D;}
</style>
<g>
	<circle class="st0" cx="103.9" cy="429.25" r="8.66"/>
	<circle class="st0" cx="906.4" cy="429.25" r="8.66"/>
	<path class="st1" d="M943.4,291.33V339h-46.5v-54.44c0-1.66-1.34-3-3-3h-94c-1.66,0-3,1.34-3,3V339h-46.5v-43.61
		c2.68,0.86,5.53,1.32,8.5,1.32c12.77,0,23.59-8.56,27.01-20.24h23.99c1.66,0,3-1.34,3-3v-17.74c0-10.03-9.42-18.2-21-18.2
		c-7.1,0-13.38,3.07-17.18,7.76c-4.51-3.08-9.96-4.88-15.82-4.88c-2.96,0-5.82,0.46-8.5,1.32v-8.23h190.7
		c-6.87,7.26-11.1,17.05-11.1,27.81C930,273.21,935.18,283.93,943.4,291.33z M922.9,273.47v-17.74c0-10.03-9.42-18.2-21-18.2
		s-21,8.17-21,18.2v17.74c0,1.66,1.34,3,3,3h36C921.56,276.47,922.9,275.13,922.9,273.47z"/>
	<rect x="750.4" y="152.08" class="st1" width="193" height="10.84"/>
	<path class="st1" d="M697.9,283.63V339H567.28v-19h114.37c1.66,0,3-1.34,3-3v-33c0-1.66-1.34-3-3-3H567.28v-28.49
		c2.47,1.02,5.18,1.58,8.01,1.58c3.89,0,7.55-1.05,10.68-2.89H639c1.78,13.81,13.61,24.51,27.9,24.51c6.47,0,12.44-2.2,17.2-5.88
		L697.9,283.63z M680.44,213.7h-95.86l11.33,17.41c0.35,0.54,0.49,1.15,0.46,1.77c0.01,0.09,0.03,0.19,0.03,0.29
		c0,4.47-1.43,8.63-3.85,12.03h46.31c1.19-14.42,13.32-25.79,28.04-25.79c15.52,0,28.15,12.63,28.15,28.15
		c0,6.6-2.29,12.68-6.1,17.48l8.95,8.95v-42.04C690.31,227.89,684.17,221.48,680.44,213.7z M525.4,152.08v14.67h27
		c1.01,0,1.96,0.51,2.51,1.36l4.29,6.59h122.45c0.36,0,0.7,0.06,1.01,0.17c3.75-5.96,9.01-10.87,15.24-14.21v-8.58L525.4,152.08
		L525.4,152.08z"/>
	<path class="st1" d="M561.28,320v19H499.9v-19.26c5.43-1.15,9.5-5.97,9.5-11.74s-4.07-10.59-9.5-11.74V274c0-1.66-1.34-3-3-3
		h-43.02c-1.65,0-3,1.34-3,3v65h-58.36v-86.92c4.48-2.11,8.09-5.74,10.17-10.22c3.34,7.21,10.67,12.23,19.18,12.23
		c6.7,0,12.67-3.11,16.53-7.95c1.05-1.31,1.94-2.74,2.65-4.28c0.87,1.87,2,3.59,3.35,5.11c3.87,4.36,9.52,7.12,15.83,7.12
		c8.5,0,15.83-5.02,19.17-12.23c3.34,7.21,10.67,12.23,19.18,12.23s15.84-5.02,19.18-12.23c0.47,1.02,1.02,1.99,1.64,2.91
		c1.58,2.34,3.63,4.35,6,5.9c3.32,2.16,7.28,3.42,11.54,3.42c3.89,0,7.54-1.06,10.67-2.89c2.59-1.51,4.83-3.57,6.56-6
		c0.74-1.05,1.4-2.16,1.94-3.34c0.55,1.18,1.2,2.3,1.94,3.34c0.94,1.32,2.02,2.52,3.23,3.59v2.41V281v6v27L561.28,320L561.28,320z
		 M543.9,293.5v-9c0-1.22-0.17-2.39-0.5-3.5c-1.52-5.2-6.32-9-12-9c-2.17,0-4.22,0.56-6,1.53c-2.87,1.58-5.06,4.26-6,7.47
		c-0.33,1.11-0.5,2.28-0.5,3.5v9c0,1.22,0.17,2.39,0.5,3.5c0.94,3.21,3.13,5.89,6,7.47c1.78,0.97,3.83,1.53,6,1.53
		c2.7,0,5.21-0.86,7.25-2.32C541.83,301.41,543.9,297.7,543.9,293.5z M434.9,293.5v-9c0-6.9-5.6-12.5-12.5-12.5s-12.5,5.6-12.5,12.5
		v9c0,6.9,5.6,12.5,12.5,12.5S434.9,300.4,434.9,293.5z"/>
	<path class="st0" d="M560.48,236.17h29.62c-0.76,3.68-2.91,6.87-5.88,9.03c-2.5,1.82-5.59,2.89-8.93,2.89
		c-2.94,0-5.69-0.83-8.01-2.27c-0.31-0.19-0.62-0.4-0.92-0.62c-2.24-1.63-4.01-3.85-5.08-6.43
		C560.94,237.94,560.67,237.07,560.48,236.17z"/>
	<path class="st0" d="M522.13,236.17h29.61c-0.76,3.68-2.91,6.88-5.88,9.03c-2.5,1.82-5.59,2.89-8.92,2.89c-0.18,0-0.36,0-0.54-0.01
		c-4.41-0.15-8.34-2.18-11-5.28C523.79,240.93,522.65,238.66,522.13,236.17z"/>
	<path class="st0" d="M483.78,236.17h29.61c-1.41,6.79-7.52,11.92-14.81,11.92S485.19,242.96,483.78,236.17z"/>
	<path class="st0" d="M445.42,236.17h29.61c-1.41,6.79-7.51,11.92-14.8,11.92C452.93,248.09,446.83,242.96,445.42,236.17z"/>
	<path class="st0" d="M368.71,236.17h29.61c-0.76,3.65-2.87,6.82-5.8,8.97c-1.75,1.29-3.79,2.21-6,2.65c-0.97,0.2-1.97,0.3-3,0.3
		C376.22,248.09,370.12,242.96,368.71,236.17z"/>
	<path class="st0" d="M407.07,236.17h29.61c-1.41,6.79-7.52,11.92-14.81,11.92C414.58,248.09,408.48,242.96,407.07,236.17z"/>
	<path class="st1" d="M273.4,275.67V339h-20v-67.87l1.3-1.3c4.76,3.68,10.73,5.88,17.2,5.88C272.4,275.71,272.9,275.7,273.4,275.67z
		"/>
	<path class="st1" d="M386.52,253.88V339H364.9v-19.38c5.18-1.33,9-6.03,9-11.62s-3.82-10.29-9-11.62V274c0-1.66-1.34-3-3-3h-43.02
		c-1.65,0-3,1.34-3,3v65H279.4v-64.31c11.89-3.29,20.65-14.21,20.65-27.13c0-9.85-5.09-18.53-12.77-23.56h80.24l-4.63,7.11
		c-0.36,0.55-0.5,1.18-0.46,1.8c-0.01,0.09-0.03,0.17-0.03,0.26c0,11.53,9.47,20.92,21.12,20.92
		C384.54,254.09,385.54,254.02,386.52,253.88z M253.4,33v138.03c5.56,6.93,8.9,15.72,8.9,25.28c0,9.55-3.33,18.34-8.9,25.26v4.8
		c4.95-4.33,11.43-6.96,18.5-6.96c0.5,0,1,0.01,1.5,0.04V188c0-1.66,1.34-3,3-3h116.5l8-12.3V162H290.08c-1.66,0-3-1.34-3-3v-24
		H275.9c-1.66,0-3-1.34-3-3V99c0-1.66,1.34-3,3-3h140c1.66,0,3,1.34,3,3v33c0,1.66-1.34,3-3,3H293.08v21H403.9c1.66,0,3,1.34,3,3
		v7.75h31.5V33H253.4z M408.13,80.62c-7.89,0-14.31-7.59-14.31-16.93s6.42-16.93,14.31-16.93s14.31,7.59,14.31,16.93
		S416.02,80.62,408.13,80.62z M375,83V44h5.99v39H375z M345.96,80.62c-7.89,0-14.31-7.59-14.31-16.93s6.42-16.93,14.31-16.93
		s14.31,7.59,14.31,16.93S353.85,80.62,345.96,80.62z M304.39,80.62c-7.89,0-14.31-7.59-14.31-16.93s6.42-16.93,14.31-16.93
		c7.89,0,14.31,7.59,14.31,16.93S312.28,80.62,304.39,80.62z M269.36,83V44h6v39H269.36z M399.82,63.69
		c0,6.03,3.73,10.94,8.31,10.94s8.31-4.91,8.31-10.94s-3.73-10.94-8.31-10.94C403.55,52.75,399.82,57.66,399.82,63.69z
		 M296.08,63.69c0,6.03,3.73,10.94,8.31,10.94c4.59,0,8.31-4.91,8.31-10.94s-3.72-10.94-8.31-10.94
		C299.81,52.75,296.08,57.66,296.08,63.69z M337.65,63.69c0,6.03,3.73,10.94,8.31,10.94c4.59,0,8.32-4.91,8.32-10.94
		s-3.73-10.94-8.32-10.94C341.38,52.75,337.65,57.66,337.65,63.69z"/>
	<path class="st1" d="M193.4,293.25V339h-16.77l-0.32-42.53c1.18,0.16,2.37,0.24,3.59,0.24
		C184.79,296.71,189.39,295.46,193.4,293.25z M87.9,303.39l65.86-24.4c-1.3-3.23-2.01-6.75-2.01-10.43c0-7.18,2.71-13.75,7.16-18.72
		L87.9,279.99L87.9,303.39L87.9,303.39z M181.5,196.31c0-11.17,4.55-21.29,11.9-28.62v-50.6L64.9,177.27v51.93
		c9.66,7.39,15.9,19.03,15.9,32.11c0,13.07-6.24,24.71-15.9,32.09V339h17v-61c0-1.2,0.72-2.29,1.83-2.76l87.67-37.22v-33.39
		l-85.28,38.11c-0.92,0.41-2,0.33-2.85-0.22c-0.86-0.55-1.37-1.5-1.37-2.52v-35c0-1.17,0.68-2.23,1.74-2.72l71.03-32.99
		c-0.18-0.82-0.27-1.67-0.27-2.54c0-6.63,5.37-12,12-12s12,5.37,12,12c0,6.62-5.37,12-12,12c-3.6,0-6.84-1.59-9.03-4.11L87.9,206.92
		v28.45l85.28-38.11c0.92-0.41,2-0.33,2.85,0.22c0.86,0.56,1.37,1.5,1.37,2.52v40c0,0.18-0.02,0.36-0.05,0.54
		c0.84-0.09,1.69-0.13,2.55-0.13c4.89,0,9.49,1.25,13.5,3.46v-18.96C186.05,217.59,181.5,207.47,181.5,196.31z"/>
	<path class="st0" d="M166.4,160.75c3.31,0,6,2.69,6,6s-2.69,6-6,6c-1.13,0-2.19-0.31-3.09-0.87c-1.74-1.04-2.91-2.95-2.91-5.13
		c0-0.04,0-0.09,0.01-0.13C160.47,163.37,163.13,160.75,166.4,160.75z"/>
	<path class="st0" d="M849.9,308.81c1.79,1.03,3,2.97,3,5.19s-1.21,4.16-3,5.19c-0.88,0.52-1.9,0.81-3,0.81s-2.12-0.29-3-0.81
		c-1.79-1.03-3-2.97-3-5.19s1.21-4.16,3-5.19c0.88-0.52,1.9-0.81,3-0.81S849.02,308.29,849.9,308.81z"/>
	<path class="st2" d="M843.9,325.62V339h-41v-51.44h41v14.82c-5.18,1.33-9,6.03-9,11.62S838.72,324.29,843.9,325.62z"/>
	<path class="st2" d="M890.9,287.56V339h-41v-13.38c5.18-1.33,9-6.03,9-11.62s-3.82-10.29-9-11.62v-14.82H890.9z"/>
	<path class="st0" d="M806.9,255.73v14.74h-19.93c0.06-0.63,0.08-1.27,0.08-1.91c0-7.51-2.96-14.35-7.78-19.4
		c2.67-3.38,7.33-5.63,12.63-5.63C800.17,243.53,806.9,249.01,806.9,255.73z"/>
	<path class="st0" d="M916.9,255.73v14.74h-30v-14.74c0-6.72,6.73-12.2,15-12.2S916.9,249.01,916.9,255.73z"/>
	<path class="st3" d="M1004,261.31c0,17.38-13.26,31.71-30.2,33.42V270.7c3.85-1.39,6.6-5.06,6.6-9.39c0-5.52-4.48-10-10-10
		s-10,4.48-10,10c0,4.33,2.75,8,6.6,9.39v24.03c-6.62-0.67-12.68-3.26-17.6-7.22c-2.27-1.81-4.29-3.91-6-6.24
		c-4.15-5.58-6.6-12.49-6.6-19.96s2.45-14.38,6.6-19.97c1.72-2.33,3.74-4.43,6-6.23c0.7-0.57,1.42-1.1,2.17-1.61
		c3.8-2.58,8.15-4.4,12.83-5.25c1.95-0.36,3.95-0.54,6-0.54C988.93,227.71,1004,242.79,1004,261.31z"/>
	<polygon class="st3" points="930.9,120.09 930.9,146.08 893.87,146.08 893.45,106.32 	"/>
	<path class="st2" d="M915.13,187.75c4.58,0,8.31,4.91,8.31,10.94s-3.73,10.94-8.31,10.94c-4.58,0-8.31-4.91-8.31-10.94
		S910.55,187.75,915.13,187.75z M844.65,198.69c0,6.03,3.73,10.94,8.31,10.94c4.59,0,8.32-4.91,8.32-10.94s-3.73-10.94-8.32-10.94
		C848.38,187.75,844.65,192.66,844.65,198.69z M803.08,198.69c0,6.03,3.73,10.94,8.31,10.94c4.59,0,8.31-4.91,8.31-10.94
		s-3.72-10.94-8.31-10.94C806.81,187.75,803.08,192.66,803.08,198.69z M746.59,168.92c6.64,7.21,10.71,16.83,10.71,27.39
		c0,12.55-5.75,23.78-14.76,31.19h205.77c3.09-2.03,6.48-3.65,10.09-4.77v-53.81H746.59z M915.13,215.62
		c-7.89,0-14.31-7.59-14.31-16.93s6.42-16.93,14.31-16.93s14.31,7.59,14.31,16.93S923.02,215.62,915.13,215.62z M882,218v-39h5.99
		v39H882z M852.96,215.62c-7.89,0-14.31-7.59-14.31-16.93s6.42-16.93,14.31-16.93s14.31,7.59,14.31,16.93
		S860.85,215.62,852.96,215.62z M811.39,215.62c-7.89,0-14.31-7.59-14.31-16.93s6.42-16.93,14.31-16.93s14.31,7.59,14.31,16.93
		S819.28,215.62,811.39,215.62z M776.36,218v-39h6v39H776.36z"/>
	<path class="st0" d="M724.9,196.81c0,3.19-1.88,5.96-4.6,7.24c-1.03,0.49-2.19,0.76-3.4,0.76c-1.21,0-2.37-0.27-3.4-0.76
		c-2.72-1.28-4.6-4.05-4.6-7.24c0-4.41,3.59-8,8-8C721.31,188.81,724.9,192.4,724.9,196.81z"/>
	<path class="st3" d="M780.25,268.56c0,0.64-0.03,1.28-0.09,1.91c-0.18,2.1-0.67,4.12-1.44,6c-3.14,7.87-10.84,13.44-19.82,13.44
		c-3.02,0-5.89-0.64-8.5-1.79c-1.35-0.59-2.63-1.32-3.83-2.17l3.83-3.83l5.79-5.79c0.85,0.31,1.76,0.48,2.71,0.48c4.42,0,8-3.58,8-8
		s-3.58-8-8-8c-4.42,0-8,3.58-8,8c0,0.95,0.17,1.86,0.48,2.71l-0.98,0.98l-6,6l-2.68,2.68c-2.61-3.54-4.17-7.9-4.17-12.62
		c0-6.18,2.64-11.75,6.85-15.66c1.75-1.62,3.78-2.95,6-3.92c2.61-1.14,5.48-1.77,8.5-1.77c4.72,0,9.08,1.54,12.62,4.15
		c2.13,1.56,3.96,3.51,5.38,5.74C779.02,260.41,780.25,264.34,780.25,268.56z"/>
	<path class="st3" d="M736.34,168.92c8.56,6.1,14.16,16.1,14.16,27.39c0,11.7-6.01,22.02-15.1,28.03c-1.88,1.25-3.88,2.31-6,3.16
		c-2.86,1.15-5.92,1.92-9.1,2.24v-19.35c3.98-0.99,7.29-3.69,9.1-7.27c0.96-1.9,1.5-4.04,1.5-6.31c0-2.26-0.54-4.4-1.5-6.3
		c-2.3-4.57-7.04-7.7-12.5-7.7c-5.89,0-10.94,3.64-13,8.81c-0.65,1.6-1,3.36-1,5.19c0,1.83,0.35,3.58,1,5.19
		c1.64,4.13,5.21,7.29,9.6,8.39v19.35c-3.37-0.34-6.59-1.18-9.6-2.46c-2.12-0.88-4.13-1.98-6-3.28
		c-6.3-4.33-11.06-10.76-13.25-18.27c-0.88-2.99-1.35-6.15-1.35-9.42s0.47-6.43,1.35-9.43c2.19-7.5,6.95-13.93,13.25-18.26
		c1.87-1.29,3.88-2.4,6-3.28c4-1.7,8.39-2.63,13-2.63c4.45,0,8.71,0.87,12.6,2.46C731.93,166.15,734.22,167.42,736.34,168.92z"/>
	<path class="st3" d="M688.25,247.56c0,4.72-1.56,9.08-4.17,12.62l-9.66-9.66c0.31-0.85,0.48-1.76,0.48-2.71c0-4.42-3.58-8-8-8
		c-3.51,0-6.48,2.25-7.56,5.39c-0.29,0.82-0.44,1.7-0.44,2.61c0,1.21,0.27,2.36,0.75,3.39c1.28,2.72,4.04,4.61,7.25,4.61
		c0.95,0,1.86-0.17,2.71-0.48l9.62,9.62c-3.49,2.48-7.74,3.96-12.33,3.96c-10.53,0-19.31-7.67-21.03-17.71
		c-0.21-1.18-0.32-2.4-0.32-3.64c0-0.8,0.04-1.59,0.13-2.36c1.18-10.66,10.25-18.99,21.22-18.99
		C678.67,226.21,688.25,235.79,688.25,247.56z"/>
	<rect x="567.28" y="287" class="st3" width="111.37" height="27"/>
	<path class="st0" d="M678.65,180.7v2.6c-1.39,4.09-2.15,8.46-2.15,13.01c0,3.95,0.57,7.78,1.63,11.39h-97.46l-17.57-27
		L678.65,180.7L678.65,180.7z"/>
	<path class="st2" d="M698.32,127.18H524.48c1.93-37.7,40.18-67.88,86.92-67.88S696.39,89.48,698.32,127.18z M650.9,116.5V79.67h-6
		v36.83H650.9z M631.9,97.61c0-10.95-9.4-19.83-21-19.83s-21,8.88-21,19.83s9.4,19.83,21,19.83S631.9,108.56,631.9,97.61z
		 M577.9,116.5V79.67h-6v36.83H577.9z"/>
	<ellipse class="st0" cx="610.9" cy="97.61" rx="15" ry="13.83"/>
	<path class="st3" d="M450.06,190.3c4.2,0,6.78,3.61,5.67,8.44c-1.22,5.28-6.34,10.03-11.33,10.09h-0.1c-3.48,0-5.62-2.29-5.9-5.47
		c-0.05-0.5-0.05-1.02,0-1.56c0.08-0.97,0.33-2,0.74-3.06c1.05-2.68,3.01-4.99,5.26-6.51C446.2,191.01,448.19,190.3,450.06,190.3z
		 M519.4,198.15c-2.04-4.53-6.64-7.85-10.66-7.85c-4.2,0-6.78,3.61-5.67,8.44c1.23,5.32,6.41,10.09,11.43,10.09
		c2.23,0,3.91-0.94,4.9-2.46c1.25-1.89,1.42-4.68,0.26-7.63C519.58,198.54,519.5,198.34,519.4,198.15z M573.52,207.7l-17.58-27
		l-3.9-6l-1.27-1.95H444.4h-6h-30.37l-1.13,1.74l-6,9.21l-0.84,1.3l-3.91,6l-7.29,11.2l-2.34,3.6l-7.94,12.2l-3.91,6l-3.74,5.75
		h67.47h149.47l-10.45-16.05L573.52,207.7z M551.77,218l-2.55-4.3l-3.56-6l-1.01-1.7l-6-10.1l-6.77-11.41h5.15l1.62,2.49l6,9.2
		l7.51,11.52l3.91,6l2.8,4.3L551.77,218L551.77,218z M519.4,214.95c-0.89,0.2-1.86,0.3-2.9,0.3c-9.13,0-17.95-8.02-19.41-16.51
		c-1.26-7.29,3.47-12.5,10.38-12.5c4,0,8.34,1.74,11.93,4.61c2.49,1.98,4.61,4.51,6,7.38c0.08,0.17,0.16,0.34,0.24,0.51
		c2.1,4.67,1.89,9.19-0.24,12.32C524.09,212.98,522.06,214.37,519.4,214.95z M475.85,218l0.97-33.51h5.16l0.97,33.51H475.85z
		 M444.4,215.11c-0.69,0.09-1.4,0.14-2.1,0.14c-1.43,0-2.74-0.2-3.9-0.57c-6.25-1.96-8.46-8.78-5.24-15.94
		c1.21-2.69,3.05-5.09,5.24-7.05c1.82-1.62,3.87-2.95,6-3.88c2.29-1.01,4.66-1.57,6.93-1.57c6.91,0,11.64,5.21,10.38,12.5
		C460.36,206.57,452.75,214.01,444.4,215.11z M413.4,207.27L407.03,218h-7.1l13.47-20.67l6-9.2l2.37-3.64h5.15l-7.52,12.67
		L413.4,207.27z"/>
	<path class="st0" d="M499.9,302.55c2.06,0.94,3.5,3.03,3.5,5.45s-1.44,4.51-3.5,5.45c-0.76,0.36-1.61,0.55-2.5,0.55
		c-1.31,0-2.52-0.42-3.5-1.13c-1.51-1.09-2.5-2.86-2.5-4.87s0.99-3.78,2.5-4.87c0.98-0.71,2.19-1.13,3.5-1.13
		C498.29,302,499.14,302.19,499.9,302.55z"/>
	<path class="st2" d="M493.9,319.48V339h-37.02v-62h37.02v19.52c-4.92,1.5-8.5,6.07-8.5,11.48S488.98,317.98,493.9,319.48z"/>
	<path class="st0" d="M537.9,284.5v9c0,3.59-2.92,6.5-6.5,6.5c-2.7,0-5.02-1.65-6-4c-0.32-0.77-0.5-1.62-0.5-2.5v-9
		c0-0.88,0.18-1.73,0.5-2.49c0.98-2.35,3.3-4.01,6-4.01C534.98,278,537.9,280.92,537.9,284.5z"/>
	<path class="st0" d="M428.9,284.5v9c0,3.59-2.92,6.5-6.5,6.5s-6.5-2.91-6.5-6.5v-9c0-3.58,2.92-6.5,6.5-6.5
		S428.9,280.92,428.9,284.5z"/>
	<path class="st0" d="M364.9,302.81c1.79,1.03,3,2.97,3,5.19s-1.21,4.16-3,5.19c-0.88,0.52-1.9,0.81-3,0.81s-2.12-0.29-3-0.81
		c-1.79-1.03-3-2.97-3-5.19s1.21-4.16,3-5.19c0.88-0.52,1.9-0.81,3-0.81S364.02,302.29,364.9,302.81z"/>
	<path class="st3" d="M358.9,319.62V339h-37.02v-62h37.02v19.38c-5.18,1.33-9,6.03-9,11.62S353.72,318.29,358.9,319.62z"/>
	<polygon class="st2" points="388.99,191 371.42,218 279.4,218 279.4,191 	"/>
	<rect x="278.9" y="102" class="st0" width="134" height="27"/>
	<rect x="240.4" y="6" class="st3" width="211" height="21"/>
	<path class="st3" d="M279.4,227.58c8.08,3.04,13.85,10.85,13.85,19.98s-5.77,16.94-13.85,19.98c-1.89,0.72-3.9,1.17-6,1.31
		c-0.5,0.04-1,0.06-1.5,0.06c-4.59,0-8.84-1.48-12.33-3.96l9.62-9.62c0.85,0.31,1.76,0.48,2.71,0.48c0.51,0,1.02-0.05,1.5-0.14
		c2.78-0.53,5.04-2.49,6-5.08c0.32-0.86,0.5-1.8,0.5-2.78s-0.18-1.92-0.5-2.78c-0.96-2.59-3.22-4.55-6-5.08
		c-0.48-0.09-0.99-0.14-1.5-0.14c-4.42,0-8,3.58-8,8c0,0.95,0.17,1.86,0.48,2.71l-9.66,9.66c-0.48-0.65-0.92-1.32-1.32-2.03
		c-1.81-3.12-2.85-6.73-2.85-10.59c0-3.88,1.03-7.51,2.85-10.64c3.69-6.4,10.6-10.71,18.5-10.71c0.5,0,1,0.02,1.5,0.06
		C275.5,226.41,277.51,226.86,279.4,227.58z"/>
	<path class="st3" d="M199.4,259.88c1.19,2.65,1.85,5.59,1.85,8.68c0,3.08-0.66,6-1.85,8.64c-0.63,1.42-1.42,2.75-2.32,3.98
		l-3.68-3.68l-5.98-5.98c0.31-0.85,0.48-1.76,0.48-2.71c0-4.42-3.58-8-8-8s-8,3.58-8,8c0,1.16,0.25,2.26,0.69,3.25
		c0.72,1.64,1.99,2.99,3.57,3.82c1.11,0.59,2.39,0.93,3.74,0.93c0.95,0,1.86-0.17,2.71-0.48l9.62,9.62
		c-3.49,2.48-7.74,3.96-12.33,3.96c-1.24,0-2.46-0.11-3.64-0.32c-2.13-0.36-4.16-1.05-6.02-2c-2.73-1.39-5.12-3.34-7.01-5.71
		c-1.27-1.58-2.32-3.34-3.09-5.25c-1.03-2.49-1.59-5.21-1.59-8.07c0-11.77,9.58-21.35,21.35-21.35c5.11,0,9.82,1.81,13.5,4.83
		C195.97,254.13,198.04,256.82,199.4,259.88z"/>
	<path class="st0" d="M229.9,196.81c0,3.39-2.12,6.29-5.1,7.45c-0.81,0.33-1.69,0.5-2.61,0.54c-0.1,0-0.19,0.01-0.29,0.01
		c-1.21,0-2.36-0.29-3.4-0.78c-0.17-0.08-0.34-0.15-0.5-0.24c-2.44-1.37-4.1-3.99-4.1-6.98c0-4.41,3.59-8,8-8
		S229.9,192.4,229.9,196.81z"/>
	<path class="st3" d="M253.4,184.61c1.36,3.65,2.1,7.59,2.1,11.7c0,4.1-0.74,8.03-2.1,11.66c-1.38,3.76-3.43,7.2-6,10.18
		c-5.47,6.39-13.29,10.7-22.1,11.59v-19.36c6.09-1.52,10.6-7.02,10.6-13.57c0-7.73-6.27-14-14-14s-14,6.27-14,14
		c0,6.37,4.26,11.76,10.1,13.44c0.16,0.05,0.33,0.09,0.5,0.13v19.36c-7.3-0.73-13.93-3.83-19.1-8.51c-2.31-2.08-4.33-4.48-6-7.14
		c-3.23-5.16-5.1-11.25-5.1-17.78c0-6.52,1.87-12.62,5.1-17.77c1.66-2.66,3.68-5.07,6-7.15c5.96-5.4,13.86-8.68,22.5-8.68
		c10.19,0,19.33,4.56,25.5,11.75C249.96,177.44,252,180.87,253.4,184.61z"/>
	<path class="st0" d="M131.65,314.02c1.22,0.9,2,2.35,2,3.98s-0.78,3.08-2,3.98c-0.83,0.65-1.87,1.02-3,1.02s-2.17-0.37-3-1.02
		c-1.22-0.9-2-2.35-2-3.98s0.78-3.08,2-3.98c0.83-0.65,1.87-1.02,3-1.02S130.82,313.37,131.65,314.02z"/>
	<path class="st2" d="M125.82,339H87.9v-29.22l37.75-13.98v12.66c-4.06,1.28-7,5.07-7,9.54s2.94,8.26,7,9.54V338
		C125.65,338.35,125.71,338.69,125.82,339z"/>
	<path class="st2" d="M170.3,295.02l0.33,43.98h-39.15c0.11-0.31,0.17-0.65,0.17-1v-10.46c4.06-1.28,7-5.07,7-9.54
		s-2.94-8.26-7-9.54v-14.88l24.94-9.24C159.9,289.2,164.69,292.98,170.3,295.02z"/>
	<path class="st0" d="M75.9,54.5c0,2.01-0.86,3.83-2.22,5.1c-0.97,0.91-2.2,1.55-3.56,1.79c-0.39,0.07-0.8,0.11-1.22,0.11
		c-3.86,0-7-3.14-7-7s3.14-7,7-7S75.9,50.64,75.9,54.5z"/>
	<path class="st3" d="M116.14,69.57c7.22,14.98,1.96,33.32-12.57,42.05c-7.45,4.48-16.2,5.79-24.65,3.69
		c-7.46-1.86-13.89-6.19-18.38-12.32l26.23-15.77l2.09-1.25L116.14,69.57z"/>
	<path class="st3" d="M74,261.31c0,8.87-3.46,16.95-9.1,22.96c-1.79,1.92-3.8,3.62-6,5.06c-4.42,2.93-9.56,4.84-15.1,5.4V270.7
		c3.85-1.39,6.6-5.06,6.6-9.39c0-5.52-4.48-10-10-10s-10,4.48-10,10c0,4.33,2.75,8,6.6,9.39v24.03
		c-16.94-1.71-30.2-16.04-30.2-33.42c0-18.52,15.07-33.6,33.6-33.6c6.83,0,13.19,2.05,18.5,5.57c2.2,1.45,4.21,3.15,6,5.07
		C70.54,244.35,74,252.44,74,261.31z"/>
	<path class="st4" d="M922.9,255.73v17.74c0,1.66-1.34,3-3,3h-36c-1.66,0-3-1.34-3-3v-17.74c0-10.03,9.42-18.2,21-18.2
		S922.9,245.7,922.9,255.73z M916.9,270.47v-14.74c0-6.72-6.73-12.2-15-12.2s-15,5.48-15,12.2v14.74H916.9z M915.13,181.76
		c7.89,0,14.31,7.59,14.31,16.93s-6.42,16.93-14.31,16.93s-14.31-7.59-14.31-16.93S907.24,181.76,915.13,181.76z M923.44,198.69
		c0-6.03-3.73-10.94-8.31-10.94c-4.58,0-8.31,4.91-8.31,10.94s3.73,10.94,8.31,10.94S923.44,204.72,923.44,198.69z M882,179v39h5.99
		v-39H882z M852.96,181.76c7.89,0,14.31,7.59,14.31,16.93s-6.42,16.93-14.31,16.93s-14.31-7.59-14.31-16.93
		S845.07,181.76,852.96,181.76z M861.28,198.69c0-6.03-3.73-10.94-8.32-10.94c-4.58,0-8.31,4.91-8.31,10.94s3.73,10.94,8.31,10.94
		C857.55,209.63,861.28,204.72,861.28,198.69z M811.39,181.76c7.89,0,14.31,7.59,14.31,16.93s-6.42,16.93-14.31,16.93
		s-14.31-7.59-14.31-16.93S803.5,181.76,811.39,181.76z M819.7,198.69c0-6.03-3.72-10.94-8.31-10.94c-4.58,0-8.31,4.91-8.31,10.94
		s3.73,10.94,8.31,10.94C815.98,209.63,819.7,204.72,819.7,198.69z M776.36,179v39h6v-39H776.36z M704.4,130.18c0,1.66-1.34,3-3,3
		h-180c-1.66,0-3-1.34-3-3c0-41.56,40.1-75.52,90-76.83V27.61c-5.17-1.34-9-6.02-9-11.61c0-6.63,5.37-12,12-12s12,5.37,12,12
		c0,5.59-3.83,10.27-9,11.61v25.74C664.3,54.66,704.4,88.62,704.4,130.18z M524.48,127.18h173.84
		c-1.93-37.7-40.18-67.88-86.92-67.88S526.41,89.48,524.48,127.18z M644.9,79.67v36.83h6V79.67H644.9z M610.9,77.78
		c11.6,0,21,8.88,21,19.83s-9.4,19.83-21,19.83s-21-8.88-21-19.83S599.3,77.78,610.9,77.78z M625.9,97.61
		c0-7.63-6.73-13.83-15-13.83s-15,6.2-15,13.83s6.73,13.83,15,13.83S625.9,105.24,625.9,97.61z M571.9,79.67v36.83h6V79.67H571.9z
		 M543.9,284.5v9c0,4.2-2.07,7.91-5.25,10.18c-2.04,1.46-4.55,2.32-7.25,2.32c-2.17,0-4.22-0.56-6-1.53c-2.87-1.58-5.06-4.26-6-7.47
		c-0.33-1.11-0.5-2.28-0.5-3.5v-9c0-1.22,0.17-2.39,0.5-3.5c0.94-3.21,3.13-5.89,6-7.47c1.78-0.97,3.83-1.53,6-1.53
		c5.68,0,10.48,3.8,12,9C543.73,282.11,543.9,283.28,543.9,284.5z M537.9,293.5v-9c0-3.58-2.92-6.5-6.5-6.5c-2.7,0-5.02,1.66-6,4.01
		c-0.32,0.76-0.5,1.61-0.5,2.49v9c0,0.88,0.18,1.73,0.5,2.5c0.98,2.35,3.3,4,6,4C534.98,300,537.9,297.09,537.9,293.5z M434.9,284.5
		v9c0,6.9-5.6,12.5-12.5,12.5s-12.5-5.6-12.5-12.5v-9c0-6.9,5.6-12.5,12.5-12.5S434.9,277.6,434.9,284.5z M428.9,293.5v-9
		c0-3.58-2.92-6.5-6.5-6.5s-6.5,2.92-6.5,6.5v9c0,3.59,2.92,6.5,6.5,6.5S428.9,297.09,428.9,293.5z M552.16,207.7l-7.51-11.52
		l-6-9.2l-1.62-2.49h-5.15l6.77,11.41l6,10.1l1.01,1.7l3.56,6l2.55,4.3h7.1l-2.8-4.3L552.16,207.7z M525.64,198.74
		c2.1,4.67,1.89,9.19-0.24,12.32c-1.31,1.92-3.34,3.31-6,3.89c-0.89,0.2-1.86,0.3-2.9,0.3c-9.13,0-17.95-8.02-19.41-16.51
		c-1.26-7.29,3.47-12.5,10.38-12.5c4,0,8.34,1.74,11.93,4.61c2.49,1.98,4.61,4.51,6,7.38C525.48,198.4,525.56,198.57,525.64,198.74z
		 M519.4,206.37c1.25-1.89,1.42-4.68,0.26-7.63c-0.08-0.2-0.16-0.4-0.26-0.59c-2.04-4.53-6.64-7.85-10.66-7.85
		c-4.2,0-6.78,3.61-5.67,8.44c1.23,5.32,6.41,10.09,11.43,10.09C516.73,208.83,518.41,207.89,519.4,206.37z M476.82,184.49
		L475.85,218h7.1l-0.97-33.51H476.82z M451.33,186.24c6.91,0,11.64,5.21,10.38,12.5c-1.35,7.83-8.96,15.27-17.31,16.37
		c-0.69,0.09-1.4,0.14-2.1,0.14c-1.43,0-2.74-0.2-3.9-0.57c-6.25-1.96-8.46-8.78-5.24-15.94c1.21-2.69,3.05-5.09,5.24-7.05
		c1.82-1.62,3.87-2.95,6-3.88C446.69,186.8,449.06,186.24,451.33,186.24z M455.73,198.74c1.11-4.83-1.47-8.44-5.67-8.44
		c-1.87,0-3.86,0.71-5.66,1.93c-2.25,1.52-4.21,3.83-5.26,6.51c-0.41,1.06-0.66,2.09-0.74,3.06c-0.05,0.54-0.05,1.06,0,1.56
		c0.28,3.18,2.42,5.47,5.9,5.47h0.1C449.39,208.77,454.51,204.02,455.73,198.74z M421.77,184.49l-2.37,3.64l-6,9.2L399.93,218h7.1
		l6.37-10.73l6-10.11l7.52-12.67L421.77,184.49L421.77,184.49z M408.13,46.76c7.89,0,14.31,7.59,14.31,16.93
		c0,9.34-6.42,16.93-14.31,16.93s-14.31-7.59-14.31-16.93S400.24,46.76,408.13,46.76z M416.44,63.69c0-6.03-3.73-10.94-8.31-10.94
		s-8.31,4.91-8.31,10.94s3.73,10.94,8.31,10.94S416.44,69.72,416.44,63.69z M375,44v39h5.99V44H375z M345.96,46.76
		c7.89,0,14.31,7.59,14.31,16.93c0,9.34-6.42,16.93-14.31,16.93s-14.31-7.59-14.31-16.93S338.07,46.76,345.96,46.76z M354.28,63.69
		c0-6.03-3.73-10.94-8.32-10.94c-4.58,0-8.31,4.91-8.31,10.94s3.73,10.94,8.31,10.94C350.55,74.63,354.28,69.72,354.28,63.69z
		 M304.39,46.76c7.89,0,14.31,7.59,14.31,16.93c0,9.34-6.42,16.93-14.31,16.93c-7.89,0-14.31-7.59-14.31-16.93
		S296.5,46.76,304.39,46.76z M312.7,63.69c0-6.03-3.72-10.94-8.31-10.94c-4.58,0-8.31,4.91-8.31,10.94s3.73,10.94,8.31,10.94
		C308.98,74.63,312.7,69.72,312.7,63.69z M269.36,44v39h6V44H269.36z M6.8,261.31c0,17.38,13.26,31.71,30.2,33.42V270.7
		c-3.85-1.39-6.6-5.06-6.6-9.39c0-5.52,4.48-10,10-10s10,4.48,10,10c0,4.33-2.75,8-6.6,9.39v24.03c5.54-0.56,10.68-2.47,15.1-5.4
		c2.2-1.44,4.21-3.14,6-5.06c5.64-6.01,9.1-14.09,9.1-22.96s-3.46-16.96-9.1-22.96c-1.79-1.92-3.8-3.62-6-5.07
		c-5.31-3.52-11.67-5.57-18.5-5.57C21.87,227.71,6.8,242.79,6.8,261.31z M1010.8,261.31c0,21.13-16.31,38.52-37,40.25V339h22.1
		c1.66,0,3,1.34,3,3v87.5c0,1.66-1.34,3-3,3h-74.51c-1.5,6.9-7.65,12.09-14.99,12.09c-8.46,0-15.34-6.88-15.34-15.34
		s6.88-15.34,15.34-15.34c7.52,0,13.78,5.44,15.08,12.59h71.42V345h-45.47h-2.06H17.9v81.5h70.92c1.3-7.15,7.56-12.59,15.08-12.59
		c8.46,0,15.34,6.88,15.34,15.34s-6.88,15.34-15.34,15.34c-7.34,0-13.49-5.19-14.99-12.09H14.9c-1.66,0-3-1.34-3-3V342
		c0-1.66,1.34-3,3-3H37v-37.44c-20.69-1.73-37-19.12-37-40.25c0-22.28,18.12-40.4,40.4-40.4c6.66,0,12.95,1.62,18.5,4.48v-45.31
		l-13.57,6.35c0.05,0.42,0.07,0.84,0.07,1.27c0,6.62-5.37,12-12,12s-12-5.38-12-12c0-6.63,5.37-12,12-12c4.06,0,7.64,2.02,9.81,5.1
		l77.52-36.31l-16.46-26.39c-5.45,2.77-11.39,4.19-17.4,4.19c-3.13,0-6.28-0.38-9.4-1.16c-10-2.49-18.42-8.72-23.73-17.55
		c-0.85-1.42-0.4-3.27,1.02-4.12l27.35-16.44l-9.9-15.95c-1.05,0.28-2.17,0.43-3.31,0.43c-7.17,0-13-5.83-13-13s5.83-13,13-13
		s13,5.83,13,13c0,3.87-1.7,7.35-4.39,9.74l9.74,15.69l28.48-17.12c0.69-0.41,1.5-0.53,2.28-0.34c0.77,0.2,1.43,0.69,1.84,1.37
		c10.39,17.29,5.6,39.53-10.47,51.13l16.83,26.96l77.56-36.33c-0.23-0.93-0.37-1.9-0.37-2.9c0-6.63,5.37-12,12-12s12,5.37,12,12
		c0,6.62-5.37,12-12,12c-3.46,0-6.57-1.48-8.76-3.82l-7.24,3.4v48.49c6.44-4.33,14.18-6.86,22.5-6.86c9.66,0,18.54,3.41,25.5,9.08
		V33h-10c-1.66,0-3-1.34-3-3V3c0-1.66,1.34-3,3-3h217c1.66,0,3,1.34,3,3v27c0,1.66-1.34,3-3,3h-10v133.75h75v-17.67
		c0-1.66,1.34-3,3-3h178.5c1.66,0,3,1.34,3,3v8.98c4.08-1.4,8.46-2.15,13-2.15c8.42,0,16.25,2.59,22.73,7.01h4.77v-13.84
		c0-1.66,1.34-3,3-3h140.46l-0.44-41.98l-7.93-2.92c-1.47,1.73-3.65,2.82-6.09,2.82c-4.42,0-8-3.58-8-8s3.58-8,8-8
		c4.24,0,7.71,3.31,7.97,7.49l66,24.27c1.46-1.69,3.62-2.76,6.03-2.76c4.42,0,8,3.58,8,8s-3.58,8-8,8c-4.27,0-7.75-3.35-7.98-7.56
		l-8.52-3.14v23.78h9.5c1.66,0,3,1.34,3,3v13.84h12c1.66,0,3,1.35,3,3v55.44c1.96-0.3,3.96-0.45,6-0.45
		C992.68,220.91,1010.8,239.03,1010.8,261.31z M973.8,294.73c16.94-1.71,30.2-16.04,30.2-33.42c0-18.52-15.07-33.6-33.6-33.6
		c-2.05,0-4.05,0.18-6,0.54c-4.68,0.85-9.03,2.67-12.83,5.25c-0.75,0.51-1.47,1.04-2.17,1.61c-2.26,1.8-4.28,3.9-6,6.23
		c-4.15,5.59-6.6,12.5-6.6,19.97s2.45,14.38,6.6,19.96c1.71,2.33,3.73,4.43,6,6.24c4.92,3.96,10.98,6.55,17.6,7.22V270.7
		c-3.85-1.39-6.6-5.06-6.6-9.39c0-5.52,4.48-10,10-10s10,4.48,10,10c0,4.33-2.75,8-6.6,9.39V294.73z M967,339v-37.44
		c-6.4-0.54-12.39-2.58-17.6-5.76V339H967z M958.4,222.73v-53.81H746.59c6.64,7.21,10.71,16.83,10.71,27.39
		c0,12.55-5.75,23.78-14.76,31.19h205.77C951.4,225.47,954.79,223.85,958.4,222.73z M943.4,339v-47.67
		c-8.22-7.4-13.4-18.12-13.4-30.02c0-10.76,4.23-20.55,11.1-27.81H750.4v8.23c2.68-0.86,5.54-1.32,8.5-1.32
		c5.86,0,11.31,1.8,15.82,4.88c3.8-4.69,10.08-7.76,17.18-7.76c11.58,0,21,8.17,21,18.2v17.74c0,1.66-1.34,3-3,3h-23.99
		c-3.42,11.68-14.24,20.24-27.01,20.24c-2.97,0-5.82-0.46-8.5-1.32V339h46.5v-54.44c0-1.66,1.34-3,3-3h94c1.66,0,3,1.34,3,3V339
		H943.4z M943.4,162.92v-10.84h-193v10.84H943.4z M930.9,146.08v-25.99l-37.45-13.77l0.42,39.76H930.9z M915.06,429.25
		c0-4.77-3.89-8.66-8.66-8.66s-8.66,3.89-8.66,8.66c0,4.77,3.89,8.66,8.66,8.66S915.06,434.02,915.06,429.25z M890.9,339v-51.44h-41
		v14.82c5.18,1.33,9,6.03,9,11.62s-3.82,10.29-9,11.62V339H890.9z M852.9,314c0-2.22-1.21-4.16-3-5.19c-0.88-0.52-1.9-0.81-3-0.81
		s-2.12,0.29-3,0.81c-1.79,1.03-3,2.97-3,5.19s1.21,4.16,3,5.19c0.88,0.52,1.9,0.81,3,0.81s2.12-0.29,3-0.81
		C851.69,318.16,852.9,316.22,852.9,314z M843.9,339v-13.38c-5.18-1.33-9-6.03-9-11.62s3.82-10.29,9-11.62v-14.82h-41V339H843.9z
		 M806.9,270.47v-14.74c0-6.72-6.73-12.2-15-12.2c-5.3,0-9.96,2.25-12.63,5.63c4.82,5.05,7.78,11.89,7.78,19.4
		c0,0.64-0.02,1.28-0.08,1.91H806.9z M780.16,270.47c0.06-0.63,0.09-1.27,0.09-1.91c0-4.22-1.23-8.15-3.35-11.46
		c-1.42-2.23-3.25-4.18-5.38-5.74c-3.54-2.61-7.9-4.15-12.62-4.15c-3.02,0-5.89,0.63-8.5,1.77c-2.22,0.97-4.25,2.3-6,3.92
		c-4.21,3.91-6.85,9.48-6.85,15.66c0,4.72,1.56,9.08,4.17,12.62l2.68-2.68l6-6l0.98-0.98c-0.31-0.85-0.48-1.76-0.48-2.71
		c0-4.42,3.58-8,8-8c4.42,0,8,3.58,8,8s-3.58,8-8,8c-0.95,0-1.86-0.17-2.71-0.48l-5.79,5.79l-3.83,3.83
		c1.2,0.85,2.48,1.58,3.83,2.17c2.61,1.15,5.48,1.79,8.5,1.79c8.98,0,16.68-5.57,19.82-13.44
		C779.49,274.59,779.98,272.57,780.16,270.47z M750.5,196.31c0-11.29-5.6-21.29-14.16-27.39c-2.12-1.5-4.41-2.77-6.84-3.75
		c-3.89-1.59-8.15-2.46-12.6-2.46c-4.61,0-9,0.93-13,2.63c-2.12,0.88-4.13,1.99-6,3.28c-6.3,4.33-11.06,10.76-13.25,18.26
		c-0.88,3-1.35,6.16-1.35,9.43s0.47,6.43,1.35,9.42c2.19,7.51,6.95,13.94,13.25,18.27c1.87,1.3,3.88,2.4,6,3.28
		c3.01,1.28,6.23,2.12,9.6,2.46v-19.35c-4.39-1.1-7.96-4.26-9.6-8.39c-0.65-1.61-1-3.36-1-5.19c0-1.83,0.35-3.59,1-5.19
		c2.06-5.17,7.11-8.81,13-8.81c5.46,0,10.2,3.13,12.5,7.7c0.96,1.9,1.5,4.04,1.5,6.3c0,2.27-0.54,4.41-1.5,6.31
		c-1.81,3.58-5.12,6.28-9.1,7.27v19.35c3.18-0.32,6.24-1.09,9.1-2.24c2.12-0.85,4.12-1.91,6-3.16
		C744.49,218.33,750.5,208.01,750.5,196.31z M744.4,339v-46.32c-0.94-0.57-1.84-1.18-2.7-1.85l-21.4,21.4V339L744.4,339L744.4,339z
		 M744.4,244.44V233.5h-11.75c-3.85,1.64-8,2.69-12.35,3.06v66.04l16.55-16.56c-3.81-4.8-6.1-10.88-6.1-17.48
		C730.75,258.34,736.23,249.37,744.4,244.44z M720.3,204.05c2.72-1.28,4.6-4.05,4.6-7.24c0-4.41-3.59-8-8-8c-4.41,0-8,3.59-8,8
		c0,3.19,1.88,5.96,4.6,7.24c1.03,0.49,2.19,0.76,3.4,0.76C718.11,204.81,719.27,204.54,720.3,204.05z M713.5,339v-39.77l-9.6-9.6
		V339H713.5z M713.5,289.6v-53.04c-3.33-0.28-6.55-0.97-9.6-2.01V280L713.5,289.6z M697.9,339v-55.37l-13.8-13.8
		c-4.76,3.68-10.73,5.88-17.2,5.88c-14.29,0-26.12-10.7-27.9-24.51h-53.03c-3.13,1.84-6.79,2.89-10.68,2.89
		c-2.83,0-5.54-0.56-8.01-1.58V281h114.37c1.66,0,3,1.34,3,3v33c0,1.66-1.34,3-3,3H567.28v19L697.9,339L697.9,339z M697.9,273.99
		v-42.04c-7.59-4.06-13.73-10.47-17.46-18.25h-95.86l11.33,17.41c0.35,0.54,0.49,1.15,0.46,1.77c0.01,0.09,0.03,0.19,0.03,0.29
		c0,4.47-1.43,8.63-3.85,12.03h46.31c1.19-14.42,13.32-25.79,28.04-25.79c15.52,0,28.15,12.63,28.15,28.15
		c0,6.6-2.29,12.68-6.1,17.48L697.9,273.99z M697.9,160.66v-8.58H525.4v14.67h27c1.01,0,1.96,0.51,2.51,1.36l4.29,6.59h122.45
		c0.36,0,0.7,0.06,1.01,0.17C686.41,168.91,691.67,164,697.9,160.66z M684.08,260.18c2.61-3.54,4.17-7.9,4.17-12.62
		c0-11.77-9.58-21.35-21.35-21.35c-10.97,0-20.04,8.33-21.22,18.99c-0.09,0.77-0.13,1.56-0.13,2.36c0,1.24,0.11,2.46,0.32,3.64
		c1.72,10.04,10.5,17.71,21.03,17.71c4.59,0,8.84-1.48,12.33-3.96l-9.62-9.62c-0.85,0.31-1.76,0.48-2.71,0.48
		c-3.21,0-5.97-1.89-7.25-4.61c-0.48-1.03-0.75-2.18-0.75-3.39c0-0.91,0.15-1.79,0.44-2.61c1.08-3.14,4.05-5.39,7.56-5.39
		c4.42,0,8,3.58,8,8c0,0.95-0.17,1.86-0.48,2.71L684.08,260.18z M678.65,314v-27H567.28v27H678.65z M678.65,183.3v-2.6H563.1
		l17.57,27h97.46c-1.06-3.61-1.63-7.44-1.63-11.39C676.5,191.76,677.26,187.39,678.65,183.3z M590.1,236.17h-29.62
		c0.19,0.9,0.46,1.77,0.8,2.6c1.07,2.58,2.84,4.8,5.08,6.43c0.3,0.22,0.61,0.43,0.92,0.62c2.32,1.44,5.07,2.27,8.01,2.27
		c3.34,0,6.43-1.07,8.93-2.89C587.19,243.04,589.34,239.85,590.1,236.17z M587.87,229.75l-10.45-16.05l-3.9-6l-17.58-27l-3.9-6
		l-1.27-1.95H444.4h-6h-30.37l-1.13,1.74l-6,9.21l-0.84,1.3l-3.91,6l-7.29,11.2l-2.34,3.6l-7.94,12.2l-3.91,6l-3.74,5.75h67.47
		H587.87z M561.28,339v-19v-6v-27v-6v-29.8v-2.41c-1.21-1.07-2.29-2.27-3.23-3.59c-0.74-1.04-1.39-2.16-1.94-3.34
		c-0.54,1.18-1.2,2.29-1.94,3.34c-1.73,2.43-3.97,4.49-6.56,6c-3.13,1.83-6.78,2.89-10.67,2.89c-4.26,0-8.22-1.26-11.54-3.42
		c-2.37-1.55-4.42-3.56-6-5.9c-0.62-0.92-1.17-1.89-1.64-2.91c-3.34,7.21-10.67,12.23-19.18,12.23s-15.84-5.02-19.18-12.23
		c-3.34,7.21-10.67,12.23-19.17,12.23c-6.31,0-11.96-2.76-15.83-7.12c-1.35-1.52-2.48-3.24-3.35-5.11c-0.71,1.54-1.6,2.97-2.65,4.28
		c-3.86,4.84-9.83,7.95-16.53,7.95c-8.51,0-15.84-5.02-19.18-12.23c-2.08,4.48-5.69,8.11-10.17,10.22V339h58.36v-65
		c0-1.66,1.35-3,3-3h43.02c1.66,0,3,1.34,3,3v22.26c5.43,1.15,9.5,5.97,9.5,11.74s-4.07,10.59-9.5,11.74V339L561.28,339L561.28,339z
		 M551.74,236.17h-29.61c0.52,2.49,1.66,4.76,3.27,6.63c2.66,3.1,6.59,5.13,11,5.28c0.18,0.01,0.36,0.01,0.54,0.01
		c3.33,0,6.42-1.07,8.92-2.89C548.83,243.05,550.98,239.85,551.74,236.17z M513.39,236.17h-29.61c1.41,6.79,7.51,11.92,14.8,11.92
		S511.98,242.96,513.39,236.17z M503.4,308c0-2.42-1.44-4.51-3.5-5.45c-0.76-0.36-1.61-0.55-2.5-0.55c-1.31,0-2.52,0.42-3.5,1.13
		c-1.51,1.09-2.5,2.86-2.5,4.87s0.99,3.78,2.5,4.87c0.98,0.71,2.19,1.13,3.5,1.13c0.89,0,1.74-0.19,2.5-0.55
		C501.96,312.51,503.4,310.42,503.4,308z M493.9,339v-19.52c-4.92-1.5-8.5-6.07-8.5-11.48s3.58-9.98,8.5-11.48V277h-37.02v62H493.9z
		 M475.03,236.17h-29.61c1.41,6.79,7.51,11.92,14.81,11.92C467.52,248.09,473.62,242.96,475.03,236.17z M451.4,27V6h-211v21H451.4z
		 M438.4,166.75V33h-185v138.03c5.56,6.93,8.9,15.72,8.9,25.28c0,9.55-3.33,18.34-8.9,25.26v4.8c4.95-4.33,11.43-6.96,18.5-6.96
		c0.5,0,1,0.01,1.5,0.04V188c0-1.66,1.34-3,3-3h116.5l8-12.3V162H290.08c-1.66,0-3-1.34-3-3v-24H275.9c-1.66,0-3-1.34-3-3V99
		c0-1.66,1.34-3,3-3h140c1.66,0,3,1.34,3,3v33c0,1.66-1.34,3-3,3H293.08v21H403.9c1.66,0,3,1.34,3,3v7.75H438.4z M436.68,236.17
		h-29.61c1.41,6.79,7.51,11.92,14.8,11.92C429.16,248.09,435.27,242.96,436.68,236.17z M412.9,129v-27h-134v27H412.9z
		 M398.32,236.17h-29.61c1.41,6.79,7.51,11.92,14.81,11.92c1.03,0,2.03-0.1,3-0.3c2.21-0.44,4.25-1.36,6-2.65
		C395.45,242.99,397.56,239.82,398.32,236.17z M371.42,218l17.57-27H279.4v27H371.42z M386.52,339v-85.12
		c-0.98,0.14-1.98,0.21-3,0.21c-11.65,0-21.12-9.39-21.12-20.92c0-0.09,0.02-0.17,0.03-0.26c-0.04-0.62,0.1-1.25,0.46-1.8l4.63-7.11
		h-80.24c7.68,5.03,12.77,13.71,12.77,23.56c0,12.92-8.76,23.84-20.65,27.13V339h36.48v-65c0-1.66,1.35-3,3-3h43.02
		c1.66,0,3,1.34,3,3v22.38c5.18,1.33,9,6.03,9,11.62s-3.82,10.29-9,11.62V339H386.52z M367.9,308c0-2.22-1.21-4.16-3-5.19
		c-0.88-0.52-1.9-0.81-3-0.81s-2.12,0.29-3,0.81c-1.79,1.03-3,2.97-3,5.19s1.21,4.16,3,5.19c0.88,0.52,1.9,0.81,3,0.81
		s2.12-0.29,3-0.81C366.69,312.16,367.9,310.22,367.9,308z M358.9,339v-19.38c-5.18-1.33-9-6.03-9-11.62s3.82-10.29,9-11.62V277
		h-37.02v62H358.9z M293.25,247.56c0-9.13-5.77-16.94-13.85-19.98c-1.89-0.72-3.9-1.17-6-1.31c-0.5-0.04-1-0.06-1.5-0.06
		c-7.9,0-14.81,4.31-18.5,10.71c-1.82,3.13-2.85,6.76-2.85,10.64c0,3.86,1.04,7.47,2.85,10.59c0.4,0.71,0.84,1.38,1.32,2.03
		l9.66-9.66c-0.31-0.85-0.48-1.76-0.48-2.71c0-4.42,3.58-8,8-8c0.51,0,1.02,0.05,1.5,0.14c2.78,0.53,5.04,2.49,6,5.08
		c0.32,0.86,0.5,1.8,0.5,2.78s-0.18,1.92-0.5,2.78c-0.96,2.59-3.22,4.55-6,5.08c-0.48,0.09-0.99,0.14-1.5,0.14
		c-0.95,0-1.86-0.17-2.71-0.48l-9.62,9.62c3.49,2.48,7.74,3.96,12.33,3.96c0.5,0,1-0.02,1.5-0.06c2.1-0.14,4.11-0.59,6-1.31
		C287.48,264.5,293.25,256.69,293.25,247.56z M273.4,339v-63.33c-0.5,0.03-1,0.04-1.5,0.04c-6.47,0-12.44-2.2-17.2-5.88l-1.3,1.3
		V339L273.4,339L273.4,339z M255.5,196.31c0-4.11-0.74-8.05-2.1-11.7c-1.4-3.74-3.44-7.17-6-10.15
		c-6.17-7.19-15.31-11.75-25.5-11.75c-8.64,0-16.54,3.28-22.5,8.68c-2.32,2.08-4.34,4.49-6,7.15c-3.23,5.15-5.1,11.25-5.1,17.77
		c0,6.53,1.87,12.62,5.1,17.78c1.67,2.66,3.69,5.06,6,7.14c5.17,4.68,11.8,7.78,19.1,8.51v-19.36c-0.17-0.04-0.34-0.08-0.5-0.13
		c-5.84-1.68-10.1-7.07-10.1-13.44c0-7.73,6.27-14,14-14s14,6.27,14,14c0,6.55-4.51,12.05-10.6,13.57v19.36
		c8.81-0.89,16.63-5.2,22.1-11.59c2.57-2.98,4.62-6.42,6-10.18C254.76,204.34,255.5,200.41,255.5,196.31z M247.4,339v-61.87
		l-22.1,22.1V339H247.4z M247.4,267.49v-6.09c-2.32-4.09-3.65-8.81-3.65-13.84s1.33-9.75,3.65-13.84v-6.11
		c-6.13,5.01-13.77,8.25-22.1,8.95v53.04L247.4,267.49z M224.8,204.26c2.98-1.16,5.1-4.06,5.1-7.45c0-4.41-3.59-8-8-8s-8,3.59-8,8
		c0,2.99,1.66,5.61,4.1,6.98c0.16,0.09,0.33,0.16,0.5,0.24c1.04,0.49,2.19,0.78,3.4,0.78c0.1,0,0.19-0.01,0.29-0.01
		C223.11,204.76,223.99,204.59,224.8,204.26z M218.5,339v-26.77l-19.1-19.1V339H218.5z M218.5,302.6v-66.04
		c-7.02-0.59-13.55-2.99-19.1-6.72v18.45c5.33,5.11,8.65,12.31,8.65,20.27c0,6.6-2.29,12.68-6.1,17.48L218.5,302.6z M201.25,268.56
		c0-3.09-0.66-6.03-1.85-8.68c-1.36-3.06-3.43-5.75-6-7.84c-3.68-3.02-8.39-4.83-13.5-4.83c-11.77,0-21.35,9.58-21.35,21.35
		c0,2.86,0.56,5.58,1.59,8.07c0.77,1.91,1.82,3.67,3.09,5.25c1.89,2.37,4.28,4.32,7.01,5.71c1.86,0.95,3.89,1.64,6.02,2
		c1.18,0.21,2.4,0.32,3.64,0.32c4.59,0,8.84-1.48,12.33-3.96l-9.62-9.62c-0.85,0.31-1.76,0.48-2.71,0.48
		c-1.35,0-2.63-0.34-3.74-0.93c-1.58-0.83-2.85-2.18-3.57-3.82c-0.44-0.99-0.69-2.09-0.69-3.25c0-4.42,3.58-8,8-8s8,3.58,8,8
		c0,0.95-0.17,1.86-0.48,2.71l5.98,5.98l3.68,3.68c0.9-1.23,1.69-2.56,2.32-3.98C200.59,274.56,201.25,271.64,201.25,268.56z
		 M193.4,339v-45.75c-4.01,2.21-8.61,3.46-13.5,3.46c-1.22,0-2.41-0.08-3.59-0.24l0.32,42.53H193.4z M193.4,243.87v-18.96
		c-7.35-7.32-11.9-17.44-11.9-28.6c0-11.17,4.55-21.29,11.9-28.62v-50.6L64.9,177.27v51.93c9.66,7.39,15.9,19.03,15.9,32.11
		c0,13.07-6.24,24.71-15.9,32.09V339h17v-61c0-1.2,0.72-2.29,1.83-2.76l87.67-37.22v-33.39l-85.28,38.11
		c-0.92,0.41-2,0.33-2.85-0.22c-0.86-0.55-1.37-1.5-1.37-2.52v-35c0-1.17,0.68-2.23,1.74-2.72l71.03-32.99
		c-0.18-0.82-0.27-1.67-0.27-2.54c0-6.63,5.37-12,12-12s12,5.37,12,12c0,6.62-5.37,12-12,12c-3.6,0-6.84-1.59-9.03-4.11L87.9,206.92
		v28.45l85.28-38.11c0.92-0.41,2-0.33,2.85,0.22c0.86,0.56,1.37,1.5,1.37,2.52v40c0,0.18-0.02,0.36-0.05,0.54
		c0.84-0.09,1.69-0.13,2.55-0.13C184.79,240.41,189.39,241.66,193.4,243.87z M172.4,166.75c0-3.31-2.69-6-6-6
		c-3.27,0-5.93,2.62-5.99,5.87c-0.01,0.04-0.01,0.09-0.01,0.13c0,2.18,1.17,4.09,2.91,5.13c0.9,0.56,1.96,0.87,3.09,0.87
		C169.71,172.75,172.4,170.06,172.4,166.75z M170.63,339l-0.33-43.98c-5.61-2.04-10.4-5.82-13.71-10.68l-24.94,9.24v14.88
		c4.06,1.28,7,5.07,7,9.54s-2.94,8.26-7,9.54V338c0,0.35-0.06,0.69-0.17,1H170.63z M158.91,249.84L87.9,279.99v23.4l65.86-24.4
		c-1.3-3.23-2.01-6.75-2.01-10.43C151.75,261.38,154.46,254.81,158.91,249.84z M133.65,318c0-1.63-0.78-3.08-2-3.98
		c-0.83-0.65-1.87-1.02-3-1.02s-2.17,0.37-3,1.02c-1.22,0.9-2,2.35-2,3.98s0.78,3.08,2,3.98c0.83,0.65,1.87,1.02,3,1.02
		s2.17-0.37,3-1.02C132.87,321.08,133.65,319.63,133.65,318z M87.9,339h37.92c-0.11-0.31-0.17-0.65-0.17-1v-10.46
		c-4.06-1.28-7-5.07-7-9.54s2.94-8.26,7-9.54V295.8L87.9,309.78L87.9,339L87.9,339z M103.57,111.62
		c14.53-8.73,19.79-27.07,12.57-42.05l-27.28,16.4l-2.09,1.25l-26.23,15.77c4.49,6.13,10.92,10.46,18.38,12.32
		C87.37,117.41,96.12,116.1,103.57,111.62z M112.56,429.25c0-4.77-3.89-8.66-8.66-8.66s-8.66,3.89-8.66,8.66
		c0,4.77,3.89,8.66,8.66,8.66S112.56,434.02,112.56,429.25z M73.68,59.6c1.36-1.27,2.22-3.09,2.22-5.1c0-3.86-3.14-7-7-7
		s-7,3.14-7,7s3.14,7,7,7c0.42,0,0.83-0.04,1.22-0.11C71.48,61.15,72.71,60.51,73.68,59.6z M58.9,339v-41.79
		c-4.6,2.38-9.7,3.9-15.1,4.35V339H58.9z"/>
	<g id="Wordmark_7_">
		<polygon class="st5" points="316.94,437.53 297.41,371.72 279.2,371.72 279.2,507.9 297.41,507.9 297.41,418.76 321.34,496.17 
			335.15,496.17 335.15,371.72 316.94,371.72 		"/>
		<path class="st5" d="M394.32,381.99h-13.65c-14.54,0-21.81,7.77-21.81,23.32v82.36h18.2v-41.38h20.87v61.61h18.2V405.31
			C416.13,389.76,408.86,381.99,394.32,381.99z M397.93,429.79h-20.87v-23.34c0-5.31,2.66-7.96,7.97-7.96h4.93
			c5.31,0,7.97,2.65,7.97,7.96L397.93,429.79L397.93,429.79z"/>
		<path class="st5" d="M494.9,428.62v-23.31c0-15.54-6.96-23.32-20.87-23.32h-35.66v105.83H446v17.36
			c-1.81,0.49-3.15,2.15-3.15,4.11c0,2.37,1.92,4.28,4.29,4.28c2.36,0,4.28-1.91,4.28-4.28c0-1.96-1.33-3.62-3.15-4.11v-17.36h8.31
			V452.9h11l11.95,55h17.26l-12.71-56.71C491.29,448.03,494.9,440.51,494.9,428.62z M476.69,427.48c0,6.57-2.72,9.87-8.16,9.87
			h-11.95v-38.86h11.95c5.44,0,8.16,3.29,8.16,9.86V427.48z"/>
		<polygon class="st5" points="616.92,475.66 602.13,371.72 584.11,371.72 606.11,507.9 627.73,507.9 649.73,371.72 631.72,371.72 
					"/>
		<polygon class="st5" points="727.35,371.72 709.15,371.72 709.15,481.51 752.39,481.51 752.39,465.01 727.35,465.01 		"/>
		<polygon class="st5" points="788.61,371.72 770.4,371.72 770.4,496.17 813.65,496.17 813.65,479.67 788.61,479.67 		"/>
		<path class="st5" d="M550.89,444.43c0,5.31-2.67,7.96-7.97,7.96h-4.93c-5.31,0-7.97-2.65-7.97-7.96v-62.42h-18.21v63.56
			c0,14.72,6.51,22.47,19.54,23.25v39.07h18.21v-39.07c13.03-0.78,19.54-8.53,19.54-23.25v-63.56h-18.21V444.43z"/>
		<path class="st5" d="M246.36,375.8c1.81-0.49,3.14-2.16,3.14-4.13c0-2.35-1.91-4.28-4.28-4.28c-2.35,0-4.28,1.93-4.28,4.28
			c0,1.97,1.33,3.62,3.14,4.13v17.92h-7.96v102.45h7.97v17.92c-1.81,0.49-3.14,2.16-3.14,4.13c0,2.35,1.91,4.28,4.28,4.28
			c2.35,0,4.28-1.93,4.28-4.28c0-1.97-1.33-3.62-3.14-4.13v-17.92h7.96V393.72h-7.97V375.8z"/>
		<path class="st5" d="M677.14,375.8c1.81-0.49,3.14-2.16,3.14-4.13c0-2.35-1.91-4.28-4.28-4.28c-2.35,0-4.28,1.93-4.28,4.28
			c0,1.97,1.33,3.62,3.14,4.13v17.92h-7.96v102.45h7.97v17.92c-1.81,0.49-3.14,2.16-3.14,4.13c0,2.35,1.91,4.28,4.28,4.28
			c2.35,0,4.28-1.93,4.28-4.28c0-1.97-1.33-3.62-3.14-4.13v-17.92h7.96V393.72h-7.97V375.8z"/>
		<path class="st5" d="M198.6,446.71v-0.95c8.73-1.76,13.09-6.57,13.09-14.42v-34.96c0-16.44-8.1-24.65-24.28-24.65h-48.22
			c-0.49-1.81-2.15-3.14-4.12-3.14c-2.36,0-4.27,1.91-4.27,4.28s1.91,4.28,4.27,4.28c1.97,0,3.63-1.33,4.12-3.14h17.12v66.72h-17.12
			c-0.49-1.81-2.15-3.15-4.12-3.15c-2.36,0-4.27,1.92-4.27,4.29s1.91,4.28,4.27,4.28c1.97,0,3.63-1.33,4.12-3.14h17.12v62.64h-17.08
			c-0.49-1.82-2.15-3.15-4.12-3.15c-2.36,0-4.27,1.92-4.27,4.28c0,2.37,1.91,4.29,4.27,4.29c1.97,0,3.63-1.34,4.12-3.15h17.12v-0.02
			h36.56c13.78,0,20.67-6.76,20.67-20.29v-25.35C213.58,454.68,208.59,449.5,198.6,446.71z M174.52,388.22h10.8
			c5.44,0,8.16,3.29,8.16,9.86v30.04c0,6.58-3.48,9.86-10.43,9.86h-8.53V388.22z M195.38,485.52c0,3.92-2.4,5.88-7.21,5.88h-13.65
			v-36.92h10.04c7.21,0,10.82,3.23,10.82,9.68L195.38,485.52L195.38,485.52z"/>
		<path class="st5" d="M898.25,495.38c-1.96,0-3.63,1.33-4.13,3.14H876.8v-7.12h-26.93v-36.53h23.9v-16.5h-23.9v-50.15h26.93v-16.49
			h-45.14v7.11h-17.32c-0.49-1.81-2.17-3.14-4.13-3.14c-2.36,0-4.28,1.91-4.28,4.28c0,2.36,1.92,4.28,4.28,4.28
			c1.96,0,3.63-1.33,4.13-3.14h17.32v126.79h45.14v-7.11h17.32c0.49,1.81,2.17,3.14,4.13,3.14c2.36,0,4.28-1.91,4.28-4.28
			C902.53,497.3,900.61,495.38,898.25,495.38z"/>
	</g>
</g>
</svg>
